<svg height="512" viewBox="0 0 60 60" width="512" xmlns="http://www.w3.org/2000/svg"><g id="Page-1" fill="none" fill-rule="evenodd"><g id="002---Algebra-Test" fill-rule="nonzero"><path id="Shape" d="m39 12v7h-7c-1.6568542 0-3 1.3431458-3 3v34c0 1.6568542 1.3431458 3 3 3h-29c-1.10320187-.0032948-1.9967052-.8967981-2-2v-54c.0032948-1.10320187.89679813-1.9967052 2-2h25l.09.09-.09.09v8.82c.0032948 1.1032019.8967981 1.9967052 2 2h8.82l.09-.09z" fill="#e8edfc"/><path id="Shape" d="m25 1.18v8.82c.0032948 1.1032019.8967981 1.9967052 2 2h3c-1.1032019-.0032948-1.9967052-.8967981-2-2v-8.82l.09-.09-.09-.09h-3l.09.09z" fill="#cad9fc"/><path id="Shape" d="m38.91 11.91-.09.09h-2.82v7h3v-7z" fill="#cad9fc"/><path id="Shape" d="m32 19h-3c-1.6568542 0-3 1.3431458-3 3v34c0 1.6568542 1.3431458 3 3 3h3c-1.6568542 0-3-1.3431458-3-3v-34c0-1.6568542 1.3431458-3 3-3z" fill="#cad9fc"/><path id="Shape" d="m38.91 11.91-.09.09h-8.82c-1.1032019-.0032948-1.9967052-.8967981-2-2v-8.82l.09-.09z" fill="#fff"/><rect id="Rectangle-path" fill="#cad9fc" height="40" rx="3" width="30" x="29" y="19"/><path id="Shape" d="m56 19h-3c1.6568542 0 3 1.3431458 3 3v34c0 1.6568542-1.3431458 3-3 3h3c1.6568542 0 3-1.3431458 3-3v-34c0-1.6568542-1.3431458-3-3-3z" fill="#a4c2f7"/><path id="Shape" d="m51 23-8 14h-7l8-14z" fill="#fff"/><path id="Shape" d="m44 23-8 14h-2c-.5522847 0-1-.4477153-1-1v-12c0-.5522847.4477153-1 1-1z" fill="#e8edfc"/><path id="Shape" d="m55 24v12c0 .5522847-.4477153 1-1 1h-11l8-14h3c.5522847 0 1 .4477153 1 1z" fill="#e8edfc"/><rect id="Rectangle-path" fill="#e8edfc" height="4" rx="1" width="4" x="34" y="42"/><rect id="Rectangle-path" fill="#e8edfc" height="4" rx="1" width="4" x="42" y="42"/><rect id="Rectangle-path" fill="#e8edfc" height="4" rx="1" width="4" x="50" y="42"/><rect id="Rectangle-path" fill="#e8edfc" height="4" rx="1" width="4" x="34" y="50"/><rect id="Rectangle-path" fill="#e8edfc" height="4" rx="1" width="4" x="42" y="50"/><rect id="Rectangle-path" fill="#e8edfc" height="4" rx="1" width="4" x="50" y="50"/><path id="Shape" d="m3 59h3c-1.10320187-.0032948-1.9967052-.8967981-2-2v-54c.0032948-1.10320187.89679813-1.9967052 2-2h-3c-1.10320187.0032948-1.9967052.89679813-2 2v54c.0032948 1.1032019.89679813 1.9967052 2 2z" fill="#fff"/><path id="Rectangle-path" d="m0 3h2v8h-2z" fill="#fff"/><g fill="#4590ff"><path id="Shape" d="m1.02 8c-.55228475.00276142-1.00223858-.44271525-1.005-.995s.44271525-1.00223858.995-1.005h.01c.55228475 0 1 .44771525 1 1s-.44771525 1-1 1z"/><path id="Shape" d="m56 18h-16v-6c-.0000566-.2651948-.1054506-.5195073-.293-.707l-11-11c-.1874927-.18754937-.4418052-.29294336-.707-.293h-25c-1.65685425 0-3 1.34314575-3 3 0 .35726559.19059892.68739261.5.8660254.30940108.1786328.69059892.1786328 1 0 .30940108-.17863279.5-.50875981.5-.8660254 0-.55228475.44771525-1 1-1h24v8c0 1.6568542 1.3431458 3 3 3h8v5h-6c-2.209139 0-4 1.790861-4 4v34c.0041446.7042532.1960759 1.3946535.556 2h-25.556c-.55228475 0-1-.4477153-1-1v-46c0-.5522847-.44771525-1-1-1s-1 .4477153-1 1v46c0 1.6568542 1.34314575 3 3 3h53c2.209139 0 4-1.790861 4-4v-34c0-2.209139-1.790861-4-4-4zm-26-7c-.5522847 0-1-.4477153-1-1v-6.586l7.586 7.586zm28 45c0 1.1045695-.8954305 2-2 2h-24c-1.1045695 0-2-.8954305-2-2v-34c0-1.1045695.8954305-2 2-2h24c1.1045695 0 2 .8954305 2 2z"/><path id="Shape" d="m54 22h-20c-1.1045695 0-2 .8954305-2 2v12c0 1.1045695.8954305 2 2 2h20c1.1045695 0 2-.8954305 2-2v-12c0-1.1045695-.8954305-2-2-2zm-20 14v-12h8.277l-6.857 12zm3.723 0 6.857-12h4.7l-6.86 12zm7 0 6.857-12h2.42v12z"/><path id="Shape" d="m37 41h-2c-1.1045695 0-2 .8954305-2 2v2c0 1.1045695.8954305 2 2 2h2c1.1045695 0 2-.8954305 2-2v-2c0-1.1045695-.8954305-2-2-2zm-2 4v-2h2v2z"/><path id="Shape" d="m45 41h-2c-1.1045695 0-2 .8954305-2 2v2c0 1.1045695.8954305 2 2 2h2c1.1045695 0 2-.8954305 2-2v-2c0-1.1045695-.8954305-2-2-2zm-2 4v-2h2v2z"/><path id="Shape" d="m53 41h-2c-1.1045695 0-2 .8954305-2 2v2c0 1.1045695.8954305 2 2 2h2c1.1045695 0 2-.8954305 2-2v-2c0-1.1045695-.8954305-2-2-2zm-2 4v-2h2v2z"/><path id="Shape" d="m37 49h-2c-1.1045695 0-2 .8954305-2 2v2c0 1.1045695.8954305 2 2 2h2c1.1045695 0 2-.8954305 2-2v-2c0-1.1045695-.8954305-2-2-2zm-2 4v-2h2v2z"/><path id="Shape" d="m45 49h-2c-1.1045695 0-2 .8954305-2 2v2c0 1.1045695.8954305 2 2 2h2c1.1045695 0 2-.8954305 2-2v-2c0-1.1045695-.8954305-2-2-2zm-2 4v-2h2v2z"/><path id="Shape" d="m53 49h-2c-1.1045695 0-2 .8954305-2 2v2c0 1.1045695.8954305 2 2 2h2c1.1045695 0 2-.8954305 2-2v-2c0-1.1045695-.8954305-2-2-2zm-2 4v-2h2v2z"/><path id="Shape" d="m5.293 24.707c.39049985.3903819 1.02350015.3903819 1.414 0l1.293-1.293 1.293 1.293c.39237889.3789722 1.0160848.3735524 1.4018186-.0121814s.3911536-1.0094397.0121814-1.4018186l-1.293-1.293 1.293-1.293c.3789722-.3923789.3735524-1.0160848-.0121814-1.4018186s-1.00943971-.3911536-1.4018186-.0121814l-1.293 1.293-1.293-1.293c-.39237889-.3789722-1.01608478-.3735524-1.40181858.0121814-.38573379.3857338-.39115363 1.0094397-.01218142 1.4018186l1.293 1.293-1.293 1.293c-.39038194.3904999-.39038194 1.0235001 0 1.414z"/><path id="Shape" d="m14 25h4c.5522847 0 1-.4477153 1-1s-.4477153-1-1-1h-4c-.5522847 0-1 .4477153-1 1s.4477153 1 1 1z"/><path id="Shape" d="m14 21h4c.5522847 0 1-.4477153 1-1s-.4477153-1-1-1h-4c-.5522847 0-1 .4477153-1 1s.4477153 1 1 1z"/><path id="Shape" d="m24 21.829c1.2518652-.4440134 2.0627237-1.6583784 1.9930333-2.9848239-.0696905-1.3264455-1.003337-2.4491555-2.2948378-2.7595424-1.2915009-.310387-2.6333599.2654498-3.2981955 1.4153663-.1917488.3099415-.19969.6996593-.0207263 1.0171547s.5164881.5124835.880931.5089145c.3644428-.003569.6980838-.2051298.8707953-.5260692.2424614-.4199504.7512754-.6054271 1.2071135-.440026.455838.1654012.7273175.6340079.6440595 1.1117253-.083258.4777175-.4972567.826857-.982173.8283007-.5522847 0-1 .4477153-1 1v1c0 .5522847.4477153 1 1 1s1-.4477153 1-1z"/><circle id="Oval" cx="23" cy="26" r="1"/><path id="Shape" d="m5.293 37.707c.39049985.3903819 1.02350015.3903819 1.414 0l4-4c.3789722-.3923789.3735524-1.0160848-.0121814-1.4018186s-1.00943971-.3911536-1.4018186-.0121814l-1.293 1.293-1.293-1.293c-.39237889-.3789722-1.01608478-.3735524-1.40181858.0121814-.38573379.3857338-.39115363 1.0094397-.01218142 1.4018186l1.293 1.293-1.293 1.293c-.39038194.3904999-.39038194 1.0235001 0 1.414z"/><path id="Shape" d="m14 38h4c.5522847 0 1-.4477153 1-1s-.4477153-1-1-1h-4c-.5522847 0-1 .4477153-1 1s.4477153 1 1 1z"/><path id="Shape" d="m14 34h4c.5522847 0 1-.4477153 1-1s-.4477153-1-1-1h-4c-.5522847 0-1 .4477153-1 1s.4477153 1 1 1z"/><path id="Shape" d="m20.766 31.865c.2295263.1330862.5025329.169503.7589185.1012336.2563855-.0682695.4751314-.2356285.6080815-.4652336.242209-.4206389.7515083-.6066019 1.2077742-.4410007.4562658.1656012.7277243.6349393.6437482 1.1130087-.0839761.4780693-.4991336.8267988-.9845224.826992-.5522847 0-1 .4477153-1 1v1c0 .5522847.4477153 1 1 1s1-.4477153 1-1v-.171c1.2518652-.4440134 2.0627237-1.6583784 1.9930333-2.9848239-.0696905-1.3264455-1.003337-2.4491555-2.2948378-2.7595424-1.2915009-.310387-2.6333599.2654498-3.2981955 1.4153663-.2754489.4780572-.1116685 1.0888775.366 1.365z"/><circle id="Oval" cx="23" cy="39" r="1"/><path id="Shape" d="m6 47h1.586l-2.293 2.293c-.28590792.2859943-.37142191.7160366-.21667798 1.0896546.15474393.3736179.51928208.6172591.92367798.6173454h4c.5522847 0 1-.4477153 1-1s-.4477153-1-1-1h-1.586l2.293-2.293c.2859079-.2859943.3714219-.7160366.216678-1.0896546-.1547439-.3736179-.5192821-.6172591-.923678-.6173454h-4c-.55228475 0-1 .4477153-1 1s.44771525 1 1 1z"/><path id="Shape" d="m14 51h4c.5522847 0 1-.4477153 1-1s-.4477153-1-1-1h-4c-.5522847 0-1 .4477153-1 1s.4477153 1 1 1z"/><path id="Shape" d="m14 47h4c.5522847 0 1-.4477153 1-1s-.4477153-1-1-1h-4c-.5522847 0-1 .4477153-1 1s.4477153 1 1 1z"/><path id="Shape" d="m20.766 44.865c.2295263.1330862.5025329.169503.7589185.1012336.2563855-.0682695.4751314-.2356285.6080815-.4652336.242209-.4206389.7515083-.6066019 1.2077742-.4410007.4562658.1656012.7277243.6349393.6437482 1.1130087-.0839761.4780693-.4991336.8267988-.9845224.826992-.5522847 0-1 .4477153-1 1v1c0 .5522847.4477153 1 1 1s1-.4477153 1-1v-.171c1.2518652-.4440134 2.0627237-1.6583784 1.9930333-2.9848239-.0696905-1.3264455-1.003337-2.4491555-2.2948378-2.7595424-1.2915009-.310387-2.6333599.2654498-3.2981955 1.4153663-.2754489.4780572-.1116685 1.0888775.366 1.365z"/><circle id="Oval" cx="23" cy="52" r="1"/></g></g></g></svg>