<svg id="Capa_1" enable-background="new 0 0 510.54 510.54" height="512" viewBox="0 0 510.54 510.54" width="512" xmlns="http://www.w3.org/2000/svg"><g><path d="m174 80.27-11.19 15 11.19 15v34l-15.28 13.93 15.28 16.07v34l-12.72 16.43 12.72 13.57v77.85h-126v-315.85h126z" fill="#cef2fb"/><path d="m174 80.27-11.19 15 11.19 15v34l-15.28 13.93 15.28 16.07v34l-12.72 16.43 12.72 13.57v77.85h-63v-315.85h63z" fill="#a7eaf9"/><path d="m222 399.27c0 61.21-49.79 111-111 111s-111-49.79-111-111c0-56.12 41.86-102.65 96-109.99 0 0 9.91 14.82 15 14.82s15-14.82 15-14.82c54.14 7.34 96 53.87 96 109.99z" fill="#e6f8fc"/><path d="m222 399.27c0 61.21-49.79 111-111 111v-206.17c5.09 0 15-14.82 15-14.82 54.14 7.34 96 53.87 96 109.99z" fill="#cef2fb"/><path d="m158 399.27c0 25.92-21.08 47-47 47s-47-21.08-47-47c0-20.67 13.42-38.26 32-44.53v-65.46c9.596-1.309 19.857-1.384 30 0v65.46c18.58 6.27 32 23.86 32 44.53z" fill="#e63950"/><g fill="#cd0000"><path d="m158 399.27c0 25.92-21.08 47-47 47v-158c5.09 0 10.09.34 15 1.01v65.46c18.58 6.27 32 23.86 32 44.53z"/><path d="m111 208.27h63v30h-63z"/><path d="m111 144.27h63v30h-63z"/><path d="m111 80.27h63v30h-63z"/></g><path d="m270 .27c-25.92 0-47 21.08-47 47s21.08 47 47 47 47-21.08 47-47-21.08-47-47-47zm0 64c-9.37 0-17-7.63-17-17s7.63-17 17-17 17 7.63 17 17-7.63 17-17 17z" fill="#00bff0"/><path d="m317 47.27c0 25.92-21.08 47-47 47v-30c9.37 0 17-7.63 17-17s-7.63-17-17-17v-30c25.92 0 47 21.08 47 47z" fill="#00a9de"/><path d="m510.54 342.62c-72.23 86.234-234.72 28.07-234.72-103.35 0-115.957 129.894-183.29 224.52-119.41l-39.57 53.07c-53.117-35.855-124.73 2.463-124.73 66.34 0 73.143 90.089 105.355 130.4 57.42z" fill="#00bff0"/><path d="m393.18 162.59v-64.86c35.69-6.7 74.468.06 107.16 22.13l-39.57 53.07c-20.675-13.956-45.699-16.87-67.59-10.34z" fill="#00a9de"/><path d="m510.54 342.62c-29.614 35.356-74.07 46.317-117.36 38.19v-64.86c26.041 7.768 54.945 2.518 73.26-19.26z" fill="#00a9de"/></g></svg>